HIERARCHY
ROOT SpineBase
{
  OFFSET 0.000000 0.000000 0.000000
  CHANNELS 6 Xposition Yposition Zposition Zrotation Xrotation Yrotation
  JOINT SpineMid
  {
    OFFSET -0.000000 30.456508 0.000000
    CHANNELS 3 Zrotation Xrotation Yrotation
    JOINT SpineShoulder
    {
      OFFSET 0.035309 22.745606 -0.703450
      CHANNELS 3 Zrotation Xrotation Yrotation
      JOINT Neck
      {
        OFFSET 0.019438 7.548089 -0.540920
        CHANNELS 3 Zrotation Xrotation Yrotation
        JOINT Head
        {
          OFFSET -4.109547 13.540918 -0.097125
          CHANNELS 3 Zrotation Xrotation Yrotation
          End Site
          {
            OFFSET 0 0 0
          }
        }
      }
      JOINT ShoulderLeft
      {
        OFFSET -16.434415 -4.225070 2.944253
        CHANNELS 3 Zrotation Xrotation Yrotation
        JOINT ElbowLeft
        {
          OFFSET -2.949968 -28.547295 1.539783
          CHANNELS 3 Zrotation Xrotation Yrotation
          JOINT WristLeft
          {
            OFFSET -3.362388 -21.138726 -5.699524
            CHANNELS 3 Zrotation Xrotation Yrotation
            JOINT HandLeft
            {
              OFFSET 0.738468 -4.202962 -2.209417
              CHANNELS 3 Zrotation Xrotation Yrotation
              JOINT HandTipLeft
              {
                OFFSET -0.046074 -5.719979 -4.646568
                CHANNELS 3 Zrotation Xrotation Yrotation
                End Site
                {
                  OFFSET 0 0 0
                }
              }
              JOINT ThumbLeft
              {
                OFFSET -1.685679 -1.770136 -4.537733
                CHANNELS 3 Zrotation Xrotation Yrotation
                End Site
                {
                  OFFSET 0 0 0
                }
              }
            }
          }
        }
      }
      JOINT ShoulderRight
      {
        OFFSET 15.290624 -2.242228 -5.483724
        CHANNELS 3 Zrotation Xrotation Yrotation
        JOINT ElbowRight
        {
          OFFSET 6.967397 -27.131882 5.235816
          CHANNELS 3 Zrotation Xrotation Yrotation
          JOINT WristRight
          {
            OFFSET 0.569234 -22.051502 -1.821560
            CHANNELS 3 Zrotation Xrotation Yrotation
            JOINT HandRight
            {
              OFFSET -1.235710 -0.857958 0.531721
              CHANNELS 3 Zrotation Xrotation Yrotation
              JOINT HandTipRight
              {
                OFFSET 0.041595 -7.469646 0.154242
                CHANNELS 3 Zrotation Xrotation Yrotation
                End Site
                {
                  OFFSET 0 0 0
                }
              }
              JOINT ThumbRight
              {
                OFFSET 2.678295 2.160369 -0.448723
                CHANNELS 3 Zrotation Xrotation Yrotation
                End Site
                {
                  OFFSET 0 0 0
                }
              }
            }
          }
        }
      }
    }
  }
  JOINT HipLeft
  {
    OFFSET -6.576334 0.749522 -1.883677
    CHANNELS 3 Zrotation Xrotation Yrotation
    JOINT KneeLeft
    {
      OFFSET -10.893675 -24.925757 -5.853053
      CHANNELS 3 Zrotation Xrotation Yrotation
      JOINT AnkleLeft
      {
        OFFSET 3.008211 -20.815792 19.914170
        CHANNELS 3 Zrotation Xrotation Yrotation
        JOINT FootLeft
        {
          OFFSET 1.182537 -0.363613 -15.199845
          CHANNELS 3 Zrotation Xrotation Yrotation
          End Site
          {
            OFFSET 0 0 0
          }
        }
      }
    }
  }
  JOINT HipRight
  {
    OFFSET 7.140349 1.276648 -4.724126
    CHANNELS 3 Zrotation Xrotation Yrotation
    JOINT KneeRight
    {
      OFFSET 3.981657 -32.630105 1.300435
      CHANNELS 3 Zrotation Xrotation Yrotation
      JOINT AnkleRight
      {
        OFFSET -2.732620 -30.044505 2.937148
        CHANNELS 3 Zrotation Xrotation Yrotation
        JOINT FootRight
        {
          OFFSET 6.739501 -3.722331 -8.185893
          CHANNELS 3 Zrotation Xrotation Yrotation
          End Site
          {
            OFFSET 0 0 0
          }
        }
      }
    }
  }
}
MOTION
Frames: 16
Frame Time: 0.033333
-28.556787 67.416359 350.022190 0.000000 0.000000 11.699440 -0.000000 0.000000 -11.699440 -0.000000 0.000000 0.000000 -0.000000 0.000000 0.000000 0.000000 0.000000 0.000000 -0.000000 0.000000 0.000000 -0.000000 0.000000 0.000000 -0.000000 0.000000 0.000000 -0.000000 0.000000 0.000000 0.000000 0.000000 0.000000 0.000000 0.000000 0.000000 -0.000000 0.000000 0.000000 -0.000000 0.000000 0.000000 -0.000000 0.000000 0.000000 -0.000000 0.000000 0.000000 0.000000 0.000000 0.000000 0.000000 0.000000 0.000000 -0.000000 0.000000 -11.699440 -0.000000 0.000000 0.000000 -0.000000 0.000000 0.000000 0.000000 0.000000 0.000000 -0.000000 0.000000 -11.699440 -0.000000 0.000000 0.000000 -0.000000 0.000000 0.000000 0.000000 0.000000 0.000000
-28.641666 67.397903 350.112909 -0.084453 -0.117408 11.882375 0.106818 0.097503 -11.882552 -0.000000 0.000000 0.000000 -0.000000 0.000000 0.000000 0.000000 0.000000 0.000000 -0.000000 0.000000 0.000000 -0.000000 0.000000 0.000000 1.233024 0.751742 -0.521419 -1.226241 -0.762758 0.505167 0.000000 0.000000 0.000000 0.000000 0.000000 0.000000 -0.000000 0.000000 0.000000 0.197916 -1.175975 -0.044711 19.608188 8.693433 -0.176367 -22.919091 -7.734341 -3.190934 0.000000 0.000000 0.000000 0.000000 0.000000 0.000000 0.106818 0.097503 -11.882552 -0.137232 0.870573 -0.004465 0.001968 -2.317835 2.040342 0.000000 0.000000 0.000000 0.106818 0.097503 -11.882552 -0.000000 0.000000 0.000000 -1.579062 -1.182238 1.381661 0.000000 0.000000 0.000000
-28.705718 67.380841 350.179283 -0.146393 -0.204473 11.991544 0.185682 0.169595 -11.992080 -0.000000 0.000000 0.000000 -0.000000 0.000000 0.000000 0.000000 0.000000 0.000000 -0.000000 0.000000 0.000000 0.849424 0.417308 -0.298560 1.025271 0.987644 -0.452283 -2.470178 -1.098206 1.185756 0.000000 0.000000 0.000000 0.000000 0.000000 0.000000 -0.000000 0.000000 0.000000 0.360048 -2.035401 -0.075998 26.765025 12.318027 -1.881386 -32.359084 -10.418077 -4.884257 0.000000 0.000000 0.000000 0.000000 0.000000 0.000000 0.185682 0.169595 -11.992080 -0.209982 1.493648 0.017947 0.035283 -3.421565 3.363351 0.000000 0.000000 0.000000 0.185682 0.169595 -11.992080 -0.697539 -0.588356 -0.018242 -2.436407 -1.782009 2.851779 0.000000 0.000000 0.000000
-28.748941 67.365171 350.221312 -0.185876 -0.261270 12.027472 0.236241 0.216800 -12.028343 -0.000000 0.000000 0.000000 -0.000000 0.000000 0.000000 0.000000 0.000000 0.000000 -0.000000 0.000000 0.000000 1.223602 0.553005 -0.423961 0.707189 1.405220 -0.271194 -2.453053 -1.399350 1.042770 0.000000 0.000000 0.000000 0.000000 0.000000 0.000000 -0.000000 0.000000 0.000000 0.487706 -2.583454 -0.096159 30.617968 14.383277 -3.641710 -37.347817 -11.611293 -5.608618 0.000000 0.000000 0.000000 0.000000 0.000000 0.000000 0.236241 0.216800 -12.028343 -0.216537 1.859111 0.066094 0.050522 -3.384045 4.073986 0.000000 0.000000 0.000000 0.236241 0.216800 -12.028343 -0.765598 -0.741092 -0.012377 -3.879729 -2.805293 4.331519 0.000000 0.000000 0.000000
-28.771337 67.350895 350.238997 -0.202949 -0.287863 11.990484 0.258326 0.239418 -11.991534 -0.000000 0.000000 0.000000 -0.000000 0.000000 0.000000 0.000000 0.000000 0.000000 -0.000000 0.000000 0.000000 1.563844 0.640477 -0.532646 -0.161300 1.770726 0.184005 -1.617216 -1.534150 0.440499 0.000000 0.000000 0.000000 0.000000 0.000000 0.000000 -0.000000 0.000000 0.000000 0.581783 -2.823481 -0.106824 33.223196 15.732792 -5.413092 -39.912777 -12.050990 -5.641412 0.000000 0.000000 0.000000 0.000000 0.000000 0.000000 0.258326 0.239418 -11.991534 -0.155771 1.960634 0.139320 0.036828 -2.203893 4.218817 0.000000 0.000000 0.000000 0.258326 0.239418 -11.991534 -0.642290 -0.796973 0.005224 -5.451515 -3.894607 5.821273 0.000000 0.000000 0.000000
-28.772905 67.338011 350.232338 -0.197645 -0.284301 11.880705 0.251944 0.237519 -11.881718 -0.000000 0.000000 0.000000 -0.000000 0.000000 0.000000 0.000000 0.000000 0.000000 -0.000000 0.000000 0.000000 1.870029 0.680002 -0.624129 -1.576311 2.072983 0.914980 0.036842 -1.521945 -0.611338 0.000000 0.000000 0.000000 0.000000 0.000000 0.000000 -0.000000 0.000000 0.000000 0.642770 -2.756558 -0.109003 35.289020 16.660525 -7.269155 -40.754740 -12.004324 -5.064158 0.000000 0.000000 0.000000 0.000000 0.000000 0.000000 0.251944 0.237519 -11.881718 -0.027180 1.795689 0.237519 0.016159 0.190529 3.794160 0.000000 0.000000 0.000000 0.251944 0.237519 -11.881718 -0.325913 -0.754632 0.034598 -7.136683 -5.031054 7.300510 0.000000 0.000000 0.000000
-28.766957 67.342659 350.231963 -0.177088 -0.279285 11.771325 0.230341 0.237283 -11.772234 -0.000000 0.000000 0.000000 -0.000000 0.000000 0.000000 0.000000 0.000000 0.000000 -0.000000 0.000000 0.000000 2.338535 0.901240 -0.793247 -3.449758 1.378323 1.734859 2.406146 -0.246767 -1.993908 0.000000 0.000000 0.000000 0.000000 0.000000 0.000000 -0.000000 0.000000 0.000000 0.652544 -3.294001 -0.120463 37.286355 18.158989 -10.436045 -40.331270 -12.007718 -3.577826 0.000000 0.000000 0.000000 0.000000 0.000000 0.000000 0.230341 0.237283 -11.772234 1.694526 -1.301912 1.433624 -1.287884 9.041406 3.132975 0.000000 0.000000 0.000000 0.230341 0.237283 -11.772234 -0.000000 0.000000 0.000000 -9.029692 -6.889809 9.451367 0.000000 0.000000 0.000000
-28.719104 67.327739 350.173386 -0.115605 -0.210382 11.484335 0.155178 0.183152 -11.484795 -0.000000 0.000000 0.000000 -0.000000 0.000000 0.000000 0.000000 0.000000 0.000000 -0.000000 0.000000 0.000000 2.786604 0.836303 -0.906559 -6.434349 1.208306 3.150604 6.859263 -1.513777 -4.753025 0.000000 0.000000 0.000000 0.000000 0.000000 0.000000 -0.000000 0.000000 0.000000 0.730522 -2.586706 -0.110825 38.378755 18.184238 -11.591685 -38.256223 -10.355422 -2.238728 0.000000 0.000000 0.000000 0.000000 0.000000 0.000000 0.155178 0.183152 -11.484795 1.048395 -1.041968 0.853392 -0.143973 13.100638 0.917231 0.000000 0.000000 0.000000 0.155178 0.183152 -11.484795 0.900991 -0.446227 0.132221 -10.370131 -6.504489 10.602367 0.000000 0.000000 0.000000
-28.614235 67.306026 350.055462 -0.002198 -0.088275 11.084901 0.019129 0.086205 -11.084918 -0.000000 0.000000 0.000000 -0.000000 0.000000 0.000000 0.000000 0.000000 0.000000 -0.000000 0.000000 0.000000 3.440628 0.478032 -1.022059 -11.185890 1.764827 5.565090 12.652064 -3.181880 -8.184730 0.000000 0.000000 0.000000 0.000000 0.000000 0.000000 -0.000000 0.000000 0.000000 1.098507 -1.521916 -0.115541 38.763507 17.787303 -12.086448 -33.601909 -8.079659 -0.442101 0.000000 0.000000 0.000000 0.000000 0.000000 0.000000 0.928357 -0.676729 -11.073327 -1.860194 1.350832 -0.666314 2.073872 16.059419 -0.097002 0.000000 0.000000 0.000000 0.019129 0.086205 -11.084918 2.134864 0.000066 0.209075 -13.666234 -8.612192 13.232697 0.000000 0.000000 0.000000
-28.475790 67.274329 349.905692 0.165534 0.067169 10.699178 -0.175127 -0.035269 -10.699329 -0.000000 0.000000 0.000000 -0.511279 -0.613552 -0.192868 0.000000 0.000000 0.000000 -0.000000 0.000000 0.000000 3.154064 -0.339006 -0.791457 -14.468041 3.157918 7.639562 16.678685 -4.099449 -10.317088 0.000000 0.000000 0.000000 0.000000 0.000000 0.000000 -0.000000 0.000000 0.000000 0.859845 1.120690 -0.050457 42.857851 17.214300 -14.043822 -35.184902 -10.366822 0.749728 0.000000 0.000000 0.000000 0.000000 0.000000 0.000000 -0.175127 -0.035269 -10.699329 -2.004303 3.402759 -1.409803 3.956454 15.377191 -3.328936 0.000000 0.000000 0.000000 -0.175127 -0.035269 -10.699329 4.584899 0.847005 0.338990 -20.590166 -14.190043 16.892044 0.000000 0.000000 0.000000
-28.392802 67.230706 349.745991 0.236482 0.230877 10.212986 -0.273673 -0.185286 -10.213905 -0.000000 0.000000 0.000000 -0.971356 -1.590939 -0.504566 0.000000 0.000000 0.000000 -0.880816 0.603576 -0.105189 2.831114 -0.953502 -0.329453 -15.958928 4.535245 9.211771 19.414124 -3.038411 -11.462391 0.000000 0.000000 0.000000 0.000000 0.000000 0.000000 -0.000000 0.000000 0.000000 0.575553 5.716394 0.071103 48.244862 16.160522 -19.396955 -38.912576 -15.173560 4.135044 0.000000 0.000000 0.000000 0.000000 0.000000 0.000000 -1.995364 0.247239 -9.852184 0.290442 4.856078 -1.053895 4.336541 13.871954 -7.479039 0.000000 0.000000 0.000000 -0.273673 -0.185286 -10.213905 4.056378 0.891243 0.285227 -18.713547 -13.311455 13.926214 0.000000 0.000000 0.000000
-28.390261 67.161602 349.582313 0.129552 0.404209 9.652513 -0.195496 -0.376762 -9.653612 -0.000000 0.000000 0.000000 -1.377969 -2.924028 -0.935888 0.000000 0.000000 0.000000 -1.529038 0.822102 -0.156307 1.531431 -0.817635 0.178205 -15.890312 3.838773 9.661793 20.909658 -0.839174 -11.848267 0.000000 0.000000 0.000000 0.000000 0.000000 0.000000 -0.000000 0.000000 0.000000 0.482126 11.247848 0.202316 53.947994 14.507706 -25.470732 -44.235978 -17.512181 7.212150 0.000000 0.000000 0.000000 0.000000 0.000000 0.000000 -4.064281 1.131410 -9.049330 3.642230 6.183182 0.066438 3.042807 8.837857 -8.125735 0.000000 0.000000 0.000000 -0.195496 -0.376762 -9.653612 2.422647 0.231407 0.211381 -14.671503 -9.956144 12.823061 0.000000 0.000000 0.000000
-28.544589 67.082571 349.467556 -0.105398 0.546096 9.036955 0.018316 -0.555872 -9.036364 -0.000000 0.000000 0.000000 -2.001948 -4.782111 -1.557832 0.000000 0.000000 0.000000 -2.264756 1.285716 -0.229294 -0.906030 -0.531311 0.960398 -14.814318 4.833980 10.450771 21.641094 -1.696736 -11.706082 0.000000 0.000000 0.000000 0.000000 0.000000 0.000000 1.577775 -1.183158 0.016849 -1.786803 18.700198 0.518421 55.675955 11.588013 -32.534306 -47.911987 -19.335485 12.023320 0.000000 0.000000 0.000000 0.000000 0.000000 0.000000 -7.093095 3.259229 -8.260972 7.602905 7.681742 1.154113 1.875413 0.656489 -9.066726 0.000000 0.000000 0.000000 0.018316 -0.555872 -9.036364 1.994261 0.007994 0.194421 -14.300210 -9.418473 14.030588 0.000000 0.000000 0.000000
-28.809046 67.005491 349.395825 -0.425848 0.649620 8.545385 0.324619 -0.705672 -8.540972 -0.000000 0.000000 0.000000 -2.714202 -6.942361 -2.308952 0.000000 0.000000 0.000000 -3.314112 1.341599 -0.277979 -2.805389 1.188026 1.574343 -13.862944 6.171494 11.564530 20.495085 -4.510431 -10.537285 0.000000 0.000000 0.000000 0.000000 0.000000 0.000000 3.920747 -1.567444 0.403409 -5.735521 26.764025 0.960647 56.474282 7.558073 -37.360212 -52.101676 -21.433252 15.485349 0.000000 0.000000 0.000000 0.000000 0.000000 0.000000 -10.586585 6.072994 -7.526574 12.882363 6.167124 3.041928 -0.641468 -7.791476 -14.429126 0.000000 0.000000 0.000000 0.324619 -0.705672 -8.540972 2.055479 -0.023393 0.203841 -16.034114 -10.524978 17.525612 0.000000 0.000000 0.000000
-29.172153 66.940469 349.374454 -0.829576 0.701374 8.220960 0.199902 -0.178893 -8.234884 -0.324065 -0.028949 -0.050225 -2.371216 -9.616700 -3.033415 0.000000 0.000000 0.000000 -3.532266 0.471795 -0.272654 -4.478682 4.334067 2.154717 -10.920160 5.492778 11.135455 17.257713 -5.958763 -8.733464 0.000000 0.000000 0.000000 0.000000 0.000000 0.000000 8.105102 -2.289131 1.157503 -11.056542 34.281696 1.635315 53.517138 3.184107 -43.428524 -53.399287 -24.720984 20.680474 0.000000 0.000000 0.000000 0.000000 0.000000 0.000000 -13.890753 9.358821 -6.943033 16.768239 5.415647 4.360805 -1.263604 -12.036988 -16.430428 0.000000 0.000000 0.000000 1.591835 -1.031941 -8.172484 1.569084 -0.181167 0.244429 -18.673266 -12.244433 21.792508 0.000000 0.000000 0.000000
-29.664666 66.875726 349.421015 -1.384547 0.678462 7.989754 0.362840 -0.143213 -8.011969 -0.349975 0.002636 -0.068433 -2.300402 -11.725592 -3.737110 0.000000 0.000000 0.000000 -4.177896 -0.527306 -0.252462 -5.222202 7.909003 2.592730 -7.331782 4.134642 9.963422 13.325359 -4.367428 -6.655676 0.000000 0.000000 0.000000 0.000000 0.000000 0.000000 12.182505 -2.611364 1.927343 -16.538795 41.052189 2.444762 46.714903 -0.555392 -54.467488 -47.058025 -32.801605 31.708888 0.000000 0.000000 0.000000 0.000000 0.000000 0.000000 -16.501448 12.397700 -6.382072 21.303384 -0.544382 6.081900 -2.977961 -11.372891 -18.297945 0.000000 0.000000 0.000000 3.013318 -1.030778 -7.864716 1.598065 -0.158296 0.262046 -23.324833 -16.682813 28.377407 0.000000 0.000000 0.000000
